<?xml version="1.0" encoding="iso-8859-1"?>
<!-- Generator: Adobe Illustrator 19.0.0, SVG Export Plug-In . SVG Version: 6.00 Build 0)  -->
<svg xmlns="http://www.w3.org/2000/svg" xmlns:xlink="http://www.w3.org/1999/xlink" version="1.1" id="Capa_1" x="0px" y="0px" viewBox="0 0 512 512" style="enable-background:new 0 0 512 512;" xml:space="preserve" width="512px" height="512px">
<g>
	<g>
		<path d="M116.54,212.382c-1.276-3.933-5.498-6.08-9.426-4.806l-12.348,4.012v-12.982c0-4.133-3.349-7.483-7.483-7.483    c-4.133,0-7.483,3.349-7.483,7.483v12.983l-12.349-4.012c-3.925-1.275-8.151,0.873-9.428,4.804    c-1.277,3.93,0.874,8.151,4.805,9.428l12.507,4.064l-7.791,10.724c-2.429,3.343-1.688,8.023,1.655,10.452    c1.328,0.966,2.866,1.431,4.392,1.431c2.313,0,4.595-1.071,6.059-3.086l7.63-10.503c7.751,10.669,8.872,13.589,13.69,13.589    c6.066,0,9.65-6.924,6.047-11.882l-7.791-10.723l12.509-4.065C115.667,220.533,117.818,216.311,116.54,212.382z" fill="#933EC5"/>
	</g>
</g>
<g>
	<g>
		<path d="M192.515,212.379c-1.276-3.93-5.496-6.077-9.428-4.803l-12.346,4.012v-12.982c0-4.133-3.349-7.483-7.483-7.483    c-4.133,0-7.483,3.349-7.483,7.483v12.983l-12.349-4.012c-3.925-1.275-8.151,0.873-9.428,4.804    c-1.277,3.93,0.874,8.151,4.805,9.428l12.507,4.064l-7.791,10.723c-2.429,3.343-1.688,8.023,1.655,10.452    c1.328,0.966,2.866,1.431,4.392,1.431c4.816,0,5.927-2.904,13.691-13.589c7.751,10.667,8.873,13.589,13.692,13.589    c1.524,0,3.064-0.466,4.392-1.431c3.344-2.429,4.085-7.109,1.655-10.452l-7.792-10.723l12.508-4.065    C191.641,220.531,193.793,216.309,192.515,212.379z" fill="#933EC5"/>
	</g>
</g>
<g>
	<g>
		<path d="M360.179,209.738c-1.277-3.93-5.497-6.079-9.429-4.803l-23.796,7.733v-25.022c0-4.133-3.349-7.483-7.483-7.483    c-4.134,0-7.483,3.349-7.483,7.483v25.023l-23.8-7.732c-3.931-1.275-8.152,0.874-9.428,4.804c-1.277,3.93,0.874,8.152,4.804,9.428    l24.042,7.811l-14.951,20.578c-2.429,3.343-1.688,8.023,1.655,10.452c1.328,0.966,2.866,1.431,4.392,1.431    c2.313,0,4.595-1.07,6.059-3.086l14.708-20.244l14.708,20.244c1.465,2.015,3.745,3.086,6.059,3.086    c1.524,0,3.064-0.465,4.392-1.431c3.344-2.429,4.085-7.109,1.655-10.452l-14.951-20.578l24.043-7.813    C359.305,217.891,361.456,213.669,360.179,209.738z" fill="#933EC5"/>
	</g>
</g>
<g>
	<g>
		<path d="M506.156,379.625l-62.184-62.183c-6-5.999-14.738-7.326-21.944-4.264l-10.458-10.458    c25.225-28.493,35.891-67.184,28.602-104.974c-0.782-4.058-4.708-6.717-8.764-5.93c-4.058,0.782-6.714,4.707-5.93,8.764    c12.872,66.743-37.955,128.599-106.009,128.599c-95.11,0-145.111-115.647-76.388-184.369    c50.891-50.893,137.045-38.646,171.417,24.998c1.963,3.636,6.504,4.99,10.139,3.028c3.638-1.964,4.993-6.504,3.028-10.141    c-20.466-37.893-60.708-64.438-108.195-64.438c-35.58,0-68.777,14.965-92.34,41.698H33.137C14.865,139.954,0,154.819,0,173.091    v96.256c0,18.272,14.865,33.137,33.137,33.137h23.002c4.134,0,7.483-3.349,7.483-7.483c0-4.133-3.349-7.483-7.483-7.483H33.137    c-10.02,0-18.171-8.151-18.171-18.171v-96.256c0-10.02,8.151-18.171,18.171-18.171h182.689c-2.091,3.26-4.017,6.609-5.781,10.038    H33.137c-4.485,0-8.133,3.649-8.133,8.133v96.256c0,4.485,3.649,8.133,8.133,8.133h176.929c1.765,3.428,3.693,6.778,5.786,10.037    H91.059c-4.133,0-7.483,3.349-7.483,7.483s3.349,7.483,7.483,7.483h136.105c23.582,26.719,56.743,41.66,92.306,41.66    c0.002,0-0.001,0,0.001,0c30.372,0,59.039-10.906,81.517-30.844l10.459,10.458c-3.057,7.194-1.744,15.937,4.264,21.947    l62.183,62.182c7.811,7.811,20.452,7.811,28.263,0C513.948,400.095,513.948,387.417,506.156,379.625z M39.968,262.515v-82.592    h163.605c-4.633,13.071-7.048,26.984-7.048,41.277c0,14.307,2.42,28.234,7.061,41.315H39.968z M495.574,397.305    c-1.959,1.959-5.135,1.963-7.097-0.001l-62.183-62.183c-1.957-1.956-1.957-5.14-0.001-7.097c1.961-1.961,5.137-1.963,7.098,0    l62.183,62.182C497.53,392.164,497.53,395.348,495.574,397.305z" fill="#933EC5"/>
	</g>
</g>
<g>
	<g>
		<path d="M250.176,151.906c-39.964,39.965-36.944,104.699,1.833,140.327c62.465,59.378,165.413,14.473,165.413-71.034    C417.421,134.074,311.657,90.426,250.176,151.906z M357.876,147.598h-76.814C305.154,135.029,334.114,135.155,357.876,147.598z     M309.923,303.618c-10.138-1.16-20.423-4.246-29.926-9.385h78.949C338.527,305.09,325.784,303.618,309.923,303.618z     M378.791,279.267H260.149c-31.723-32.399-31.552-84.534,0.538-116.704h117.563c15.61,15.646,24.206,36.465,24.206,58.636    C402.456,243.108,394.049,263.686,378.791,279.267z" fill="#933EC5"/>
	</g>
</g>
<g>
</g>
<g>
</g>
<g>
</g>
<g>
</g>
<g>
</g>
<g>
</g>
<g>
</g>
<g>
</g>
<g>
</g>
<g>
</g>
<g>
</g>
<g>
</g>
<g>
</g>
<g>
</g>
<g>
</g>
</svg>
